<svg width="100" height="100" viewBox="0 0 100 100" fill="none" xmlns="http://www.w3.org/2000/svg">
<rect x="2" y="21" width="95" height="58" rx="10" fill="url(#paint0_linear_25_10)"/>
<path d="M15 41C15 39.3431 16.3431 38 18 38H21C22.6569 38 24 39.3431 24 41V59C24 60.6569 22.6569 62 21 62H18C16.3431 62 15 60.6569 15 59V41Z" fill="white"/>
<path d="M84 41C84 39.3431 82.6569 38 81 38H78C76.3431 38 75 39.3431 75 41V59C75 60.6569 76.3431 62 78 62H81C82.6569 62 84 60.6569 84 59V41Z" fill="white"/>
<path d="M25 36C25 34.3431 26.3431 33 28 33H32C33.6569 33 35 34.3431 35 36V64C35 65.6569 33.6569 67 32 67H28C26.3431 67 25 65.6569 25 64V36Z" fill="white"/>
<path d="M74 36C74 34.3431 72.6569 33 71 33H67C65.3431 33 64 34.3431 64 36V64C64 65.6569 65.3431 67 67 67H71C72.6569 67 74 65.6569 74 64V36Z" fill="white"/>
<path d="M60 54C61.6569 54 63 52.6569 63 51V49C63 47.3431 61.6569 46 60 46H40C38.3431 46 37 47.3431 37 49V51C37 52.6569 38.3431 54 40 54L60 54Z" fill="white"/>
<path d="M13.5 54C13.0404 54 12.5852 53.8965 12.1606 53.6955C11.736 53.4945 11.3501 53.1999 11.0251 52.8284C10.7001 52.457 10.4423 52.016 10.2664 51.5307C10.0905 51.0454 10 50.5253 10 50C10 49.4747 10.0905 48.9546 10.2664 48.4693C10.4423 47.984 10.7001 47.543 11.0251 47.1716C11.3501 46.8001 11.736 46.5055 12.1606 46.3045C12.5852 46.1035 13.0404 46 13.5 46L13.5 50V54Z" fill="white"/>
<path d="M85.5 46C85.9596 46 86.4148 46.1035 86.8394 46.3045C87.264 46.5055 87.6499 46.8001 87.9749 47.1716C88.2999 47.543 88.5577 47.984 88.7336 48.4693C88.9095 48.9546 89 49.4747 89 50C89 50.5253 88.9095 51.0454 88.7336 51.5307C88.5577 52.016 88.2999 52.457 87.9749 52.8284C87.6499 53.1999 87.264 53.4945 86.8394 53.6955C86.4148 53.8965 85.9596 54 85.5 54L85.5 50V46Z" fill="white"/>
<defs>
<linearGradient id="paint0_linear_25_10" x1="2" y1="79" x2="53.5909" y2="-5.50238" gradientUnits="userSpaceOnUse">
<stop stop-color="#FF4528"/>
<stop offset="1" stop-color="#FFC437"/>
</linearGradient>
</defs>
</svg>
